<svg width="165" height="45" viewBox="0 0 165 45" fill="none" xmlns="http://www.w3.org/2000/svg">
<rect y="0.5" width="165" height="44" rx="22" fill="#C3DCE3"/>
<path d="M30.704 26.1H25.504L24.512 28.5H21.856L26.848 17.3H29.408L34.416 28.5H31.696L30.704 26.1ZM29.888 24.132L28.112 19.844L26.336 24.132H29.888ZM39.85 19.764C40.65 19.764 41.3753 19.9507 42.026 20.324C42.6873 20.6867 43.2047 21.204 43.578 21.876C43.9513 22.5373 44.138 23.3107 44.138 24.196C44.138 25.0813 43.9513 25.86 43.578 26.532C43.2047 27.1933 42.6873 27.7107 42.026 28.084C41.3753 28.4467 40.65 28.628 39.85 28.628C38.666 28.628 37.7647 28.2547 37.146 27.508V28.5H34.762V16.628H37.258V20.804C37.8873 20.1107 38.7513 19.764 39.85 19.764ZM39.418 26.58C40.058 26.58 40.5807 26.3667 40.986 25.94C41.402 25.5027 41.61 24.9213 41.61 24.196C41.61 23.4707 41.402 22.8947 40.986 22.468C40.5807 22.0307 40.058 21.812 39.418 21.812C38.778 21.812 38.25 22.0307 37.834 22.468C37.4287 22.8947 37.226 23.4707 37.226 24.196C37.226 24.9213 37.4287 25.5027 37.834 25.94C38.25 26.3667 38.778 26.58 39.418 26.58ZM49.2649 28.628C48.3582 28.628 47.5422 28.4413 46.8169 28.068C46.1022 27.684 45.5422 27.156 45.1369 26.484C44.7315 25.812 44.5289 25.0493 44.5289 24.196C44.5289 23.3427 44.7315 22.58 45.1369 21.908C45.5422 21.236 46.1022 20.7133 46.8169 20.34C47.5422 19.956 48.3582 19.764 49.2649 19.764C50.1715 19.764 50.9822 19.956 51.6969 20.34C52.4115 20.7133 52.9715 21.236 53.3769 21.908C53.7822 22.58 53.9849 23.3427 53.9849 24.196C53.9849 25.0493 53.7822 25.812 53.3769 26.484C52.9715 27.156 52.4115 27.684 51.6969 28.068C50.9822 28.4413 50.1715 28.628 49.2649 28.628ZM49.2649 26.58C49.9049 26.58 50.4275 26.3667 50.8329 25.94C51.2489 25.5027 51.4569 24.9213 51.4569 24.196C51.4569 23.4707 51.2489 22.8947 50.8329 22.468C50.4275 22.0307 49.9049 21.812 49.2649 21.812C48.6249 21.812 48.0969 22.0307 47.6809 22.468C47.2649 22.8947 47.0569 23.4707 47.0569 24.196C47.0569 24.9213 47.2649 25.5027 47.6809 25.94C48.0969 26.3667 48.6249 26.58 49.2649 26.58ZM63.6853 19.892V28.5H61.3173V27.476C60.9866 27.8493 60.5919 28.1373 60.1333 28.34C59.6746 28.532 59.1786 28.628 58.6453 28.628C57.5146 28.628 56.6186 28.3027 55.9573 27.652C55.2959 27.0013 54.9653 26.036 54.9653 24.756V19.892H57.4613V24.388C57.4613 25.7747 58.0426 26.468 59.2053 26.468C59.8026 26.468 60.2826 26.276 60.6453 25.892C61.0079 25.4973 61.1893 24.916 61.1893 24.148V19.892H63.6853ZM70.9096 28.084C70.6643 28.2653 70.3603 28.404 69.9976 28.5C69.6456 28.5853 69.2723 28.628 68.8776 28.628C67.8536 28.628 67.059 28.3667 66.4936 27.844C65.939 27.3213 65.6616 26.5533 65.6616 25.54V22.004H64.3336V20.084H65.6616V17.988H68.1576V20.084H70.3016V22.004H68.1576V25.508C68.1576 25.8707 68.2483 26.1533 68.4296 26.356C68.6216 26.548 68.8883 26.644 69.2296 26.644C69.6243 26.644 69.9603 26.5373 70.2376 26.324L70.9096 28.084ZM80.65 19.764C81.45 19.764 82.1753 19.9507 82.826 20.324C83.4873 20.6867 84.0047 21.204 84.378 21.876C84.7513 22.5373 84.938 23.3107 84.938 24.196C84.938 25.0813 84.7513 25.86 84.378 26.532C84.0047 27.1933 83.4873 27.7107 82.826 28.084C82.1753 28.4467 81.45 28.628 80.65 28.628C79.5513 28.628 78.6873 28.2813 78.058 27.588V31.604H75.562V19.892H77.946V20.884C78.5647 20.1373 79.466 19.764 80.65 19.764ZM80.218 26.58C80.858 26.58 81.3807 26.3667 81.786 25.94C82.202 25.5027 82.41 24.9213 82.41 24.196C82.41 23.4707 82.202 22.8947 81.786 22.468C81.3807 22.0307 80.858 21.812 80.218 21.812C79.578 21.812 79.05 22.0307 78.634 22.468C78.2287 22.8947 78.026 23.4707 78.026 24.196C78.026 24.9213 78.2287 25.5027 78.634 25.94C79.05 26.3667 79.578 26.58 80.218 26.58ZM85.9689 16.628H88.4649V28.5H85.9689V16.628ZM93.6134 19.764C94.9467 19.764 95.9707 20.084 96.6854 20.724C97.4 21.3533 97.7574 22.308 97.7574 23.588V28.5H95.4214V27.428C94.952 28.228 94.0774 28.628 92.7974 28.628C92.136 28.628 91.56 28.516 91.0694 28.292C90.5894 28.068 90.2214 27.7587 89.9654 27.364C89.7094 26.9693 89.5814 26.5213 89.5814 26.02C89.5814 25.22 89.88 24.5907 90.4774 24.132C91.0854 23.6733 92.0187 23.444 93.2774 23.444H95.2614C95.2614 22.9 95.096 22.484 94.7654 22.196C94.4347 21.8973 93.9387 21.748 93.2774 21.748C92.8187 21.748 92.3654 21.8227 91.9174 21.972C91.48 22.1107 91.1067 22.3027 90.7974 22.548L89.9014 20.804C90.3707 20.4733 90.9307 20.2173 91.5814 20.036C92.2427 19.8547 92.92 19.764 93.6134 19.764ZM93.4214 26.948C93.848 26.948 94.2267 26.852 94.5574 26.66C94.888 26.4573 95.1227 26.164 95.2614 25.78V24.9H93.5494C92.5254 24.9 92.0134 25.236 92.0134 25.908C92.0134 26.228 92.136 26.484 92.3814 26.676C92.6374 26.8573 92.984 26.948 93.4214 26.948ZM104.928 28.084C104.683 28.2653 104.379 28.404 104.016 28.5C103.664 28.5853 103.291 28.628 102.896 28.628C101.872 28.628 101.078 28.3667 100.512 27.844C99.9577 27.3213 99.6804 26.5533 99.6804 25.54V22.004H98.3524V20.084H99.6804V17.988H102.176V20.084H104.32V22.004H102.176V25.508C102.176 25.8707 102.267 26.1533 102.448 26.356C102.64 26.548 102.907 26.644 103.248 26.644C103.643 26.644 103.979 26.5373 104.256 26.324L104.928 28.084ZM108.425 20.084H110.633V22.004H108.489V28.5H105.993V22.004H104.665V20.084H105.993V19.7C105.993 18.7187 106.281 17.94 106.857 17.364C107.444 16.788 108.265 16.5 109.321 16.5C109.695 16.5 110.047 16.5427 110.377 16.628C110.719 16.7027 111.001 16.8147 111.225 16.964L110.569 18.772C110.281 18.5693 109.945 18.468 109.561 18.468C108.804 18.468 108.425 18.884 108.425 19.716V20.084ZM115.224 28.628C114.317 28.628 113.501 28.4413 112.776 28.068C112.061 27.684 111.501 27.156 111.096 26.484C110.69 25.812 110.488 25.0493 110.488 24.196C110.488 23.3427 110.69 22.58 111.096 21.908C111.501 21.236 112.061 20.7133 112.776 20.34C113.501 19.956 114.317 19.764 115.224 19.764C116.13 19.764 116.941 19.956 117.656 20.34C118.37 20.7133 118.93 21.236 119.336 21.908C119.741 22.58 119.944 23.3427 119.944 24.196C119.944 25.0493 119.741 25.812 119.336 26.484C118.93 27.156 118.37 27.684 117.656 28.068C116.941 28.4413 116.13 28.628 115.224 28.628ZM115.224 26.58C115.864 26.58 116.386 26.3667 116.792 25.94C117.208 25.5027 117.416 24.9213 117.416 24.196C117.416 23.4707 117.208 22.8947 116.792 22.468C116.386 22.0307 115.864 21.812 115.224 21.812C114.584 21.812 114.056 22.0307 113.64 22.468C113.224 22.8947 113.016 23.4707 113.016 24.196C113.016 24.9213 113.224 25.5027 113.64 25.94C114.056 26.3667 114.584 26.58 115.224 26.58ZM123.356 21.028C123.655 20.612 124.055 20.2973 124.556 20.084C125.068 19.8707 125.655 19.764 126.316 19.764V22.068C126.039 22.0467 125.852 22.036 125.756 22.036C125.041 22.036 124.481 22.2387 124.076 22.644C123.671 23.0387 123.468 23.636 123.468 24.436V28.5H120.972V19.892H123.356V21.028ZM138.184 19.764C139.261 19.764 140.115 20.084 140.744 20.724C141.384 21.3533 141.704 22.3027 141.704 23.572V28.5H139.208V23.956C139.208 23.2733 139.064 22.7667 138.776 22.436C138.499 22.0947 138.099 21.924 137.576 21.924C136.989 21.924 136.525 22.116 136.184 22.5C135.843 22.8733 135.672 23.4333 135.672 24.18V28.5H133.176V23.956C133.176 22.6013 132.632 21.924 131.544 21.924C130.968 21.924 130.509 22.116 130.168 22.5C129.827 22.8733 129.656 23.4333 129.656 24.18V28.5H127.16V19.892H129.544V20.884C129.864 20.5213 130.253 20.244 130.712 20.052C131.181 19.86 131.693 19.764 132.248 19.764C132.856 19.764 133.405 19.8867 133.896 20.132C134.387 20.3667 134.781 20.7133 135.08 21.172C135.432 20.724 135.875 20.3773 136.408 20.132C136.952 19.8867 137.544 19.764 138.184 19.764Z" fill="#2B788B"/>
</svg>
