<svg width="138" height="52" viewBox="0 0 138 52" fill="none" xmlns="http://www.w3.org/2000/svg">
<g filter="url(#filter0_d_0_105)">
<rect x="4.04761" width="129" height="44" rx="22" fill="#C3DCE3" shape-rendering="crispEdges"/>
<path d="M31.0556 28.192C30.1596 28.192 29.3009 28.0747 28.4796 27.84C27.6583 27.5947 26.9969 27.28 26.4956 26.896L27.3756 24.944C27.8556 25.2853 28.4209 25.568 29.0716 25.792C29.7329 26.0053 30.3996 26.112 31.0716 26.112C31.5836 26.112 31.9943 26.064 32.3036 25.968C32.6236 25.8613 32.8583 25.7173 33.0076 25.536C33.1569 25.3547 33.2316 25.1467 33.2316 24.912C33.2316 24.6133 33.1143 24.3787 32.8796 24.208C32.6449 24.0267 32.3356 23.8827 31.9516 23.776C31.5676 23.6587 31.1409 23.552 30.6716 23.456C30.2129 23.3493 29.7489 23.2213 29.2796 23.072C28.8209 22.9227 28.3996 22.7307 28.0156 22.496C27.6316 22.2613 27.3169 21.952 27.0716 21.568C26.8369 21.184 26.7196 20.6933 26.7196 20.096C26.7196 19.456 26.8903 18.8747 27.2316 18.352C27.5836 17.8187 28.1063 17.3973 28.7996 17.088C29.5036 16.768 30.3836 16.608 31.4396 16.608C32.1436 16.608 32.8369 16.6933 33.5196 16.864C34.2023 17.024 34.8049 17.2693 35.3276 17.6L34.5276 19.568C34.0049 19.2693 33.4823 19.0507 32.9596 18.912C32.4369 18.7627 31.9249 18.688 31.4236 18.688C30.9223 18.688 30.5116 18.7467 30.1916 18.864C29.8716 18.9813 29.6423 19.136 29.5036 19.328C29.3649 19.5093 29.2956 19.7227 29.2956 19.968C29.2956 20.256 29.4129 20.4907 29.6476 20.672C29.8823 20.8427 30.1916 20.9813 30.5756 21.088C30.9596 21.1947 31.3809 21.3013 31.8396 21.408C32.3089 21.5147 32.7729 21.6373 33.2316 21.776C33.7009 21.9147 34.1276 22.1013 34.5116 22.336C34.8956 22.5707 35.2049 22.88 35.4396 23.264C35.6849 23.648 35.8076 24.1333 35.8076 24.72C35.8076 25.3493 35.6316 25.9253 35.2796 26.448C34.9276 26.9707 34.3996 27.392 33.6956 27.712C33.0023 28.032 32.1223 28.192 31.0556 28.192ZM40.2827 28.128C39.2694 28.128 38.4801 27.872 37.9147 27.36C37.3494 26.8373 37.0667 26.064 37.0667 25.04V17.488H39.5627V25.008C39.5627 25.3707 39.6587 25.6533 39.8507 25.856C40.0427 26.048 40.3041 26.144 40.6347 26.144C41.0294 26.144 41.3654 26.0373 41.6427 25.824L42.3147 27.584C42.0587 27.7653 41.7494 27.904 41.3867 28C41.0347 28.0853 40.6667 28.128 40.2827 28.128ZM35.7387 21.504V19.584H41.7067V21.504H35.7387ZM48.3559 28V26.32L48.1959 25.952V22.944C48.1959 22.4107 48.0305 21.9947 47.6999 21.696C47.3799 21.3973 46.8839 21.248 46.2119 21.248C45.7532 21.248 45.2999 21.3227 44.8519 21.472C44.4145 21.6107 44.0412 21.8027 43.7319 22.048L42.8359 20.304C43.3052 19.9733 43.8705 19.7173 44.5319 19.536C45.1932 19.3547 45.8652 19.264 46.5479 19.264C47.8599 19.264 48.8785 19.5733 49.6039 20.192C50.3292 20.8107 50.6919 21.776 50.6919 23.088V28H48.3559ZM45.7319 28.128C45.0599 28.128 44.4839 28.016 44.0039 27.792C43.5239 27.5573 43.1559 27.2427 42.8999 26.848C42.6439 26.4533 42.5159 26.0107 42.5159 25.52C42.5159 25.008 42.6385 24.56 42.8839 24.176C43.1399 23.792 43.5399 23.4933 44.0839 23.28C44.6279 23.056 45.3372 22.944 46.2119 22.944H48.4999V24.4H46.4839C45.8972 24.4 45.4919 24.496 45.2679 24.688C45.0545 24.88 44.9479 25.12 44.9479 25.408C44.9479 25.728 45.0705 25.984 45.3159 26.176C45.5719 26.3573 45.9185 26.448 46.3559 26.448C46.7719 26.448 47.1452 26.352 47.4759 26.16C47.8065 25.9573 48.0465 25.664 48.1959 25.28L48.5799 26.432C48.3985 26.9867 48.0679 27.408 47.5879 27.696C47.1079 27.984 46.4892 28.128 45.7319 28.128ZM55.8309 28.128C54.8175 28.128 54.0282 27.872 53.4629 27.36C52.8975 26.8373 52.6149 26.064 52.6149 25.04V17.488H55.1109V25.008C55.1109 25.3707 55.2069 25.6533 55.3989 25.856C55.5909 26.048 55.8522 26.144 56.1829 26.144C56.5775 26.144 56.9135 26.0373 57.1909 25.824L57.8629 27.584C57.6069 27.7653 57.2975 27.904 56.9349 28C56.5829 28.0853 56.2149 28.128 55.8309 28.128ZM51.2869 21.504V19.584H57.2549V21.504H51.2869ZM58.624 28V19.392H61.12V28H58.624ZM59.872 18.192C59.4133 18.192 59.04 18.0587 58.752 17.792C58.464 17.5253 58.32 17.1947 58.32 16.8C58.32 16.4053 58.464 16.0747 58.752 15.808C59.04 15.5413 59.4133 15.408 59.872 15.408C60.3306 15.408 60.704 15.536 60.992 15.792C61.28 16.0373 61.424 16.3573 61.424 16.752C61.424 17.168 61.28 17.5147 60.992 17.792C60.7146 18.0587 60.3413 18.192 59.872 18.192ZM65.6925 28.128C64.9565 28.128 64.2471 28.0427 63.5645 27.872C62.8925 27.6907 62.3591 27.4667 61.9645 27.2L62.7965 25.408C63.1911 25.6533 63.6551 25.856 64.1885 26.016C64.7325 26.1653 65.2658 26.24 65.7885 26.24C66.3645 26.24 66.7698 26.1707 67.0045 26.032C67.2498 25.8933 67.3725 25.7013 67.3725 25.456C67.3725 25.2533 67.2765 25.104 67.0845 25.008C66.9031 24.9013 66.6578 24.8213 66.3485 24.768C66.0391 24.7147 65.6978 24.6613 65.3245 24.608C64.9618 24.5547 64.5938 24.4853 64.2205 24.4C63.8471 24.304 63.5058 24.1653 63.1965 23.984C62.8871 23.8027 62.6365 23.5573 62.4445 23.248C62.2631 22.9387 62.1725 22.5387 62.1725 22.048C62.1725 21.504 62.3271 21.024 62.6365 20.608C62.9565 20.192 63.4151 19.8667 64.0125 19.632C64.6098 19.3867 65.3245 19.264 66.1565 19.264C66.7431 19.264 67.3405 19.328 67.9485 19.456C68.5565 19.584 69.0631 19.7707 69.4685 20.016L68.6365 21.792C68.2205 21.5467 67.7991 21.3813 67.3725 21.296C66.9565 21.2 66.5511 21.152 66.1565 21.152C65.6018 21.152 65.1965 21.2267 64.9405 21.376C64.6845 21.5253 64.5565 21.7173 64.5565 21.952C64.5565 22.1653 64.6471 22.3253 64.8285 22.432C65.0205 22.5387 65.2711 22.624 65.5805 22.688C65.8898 22.752 66.2258 22.8107 66.5885 22.864C66.9618 22.9067 67.3351 22.976 67.7085 23.072C68.0818 23.168 68.4178 23.3067 68.7165 23.488C69.0258 23.6587 69.2765 23.8987 69.4685 24.208C69.6605 24.5067 69.7565 24.9013 69.7565 25.392C69.7565 25.9253 69.5965 26.4 69.2765 26.816C68.9565 27.2213 68.4925 27.5413 67.8845 27.776C67.2871 28.0107 66.5565 28.128 65.6925 28.128ZM74.1765 28.128C73.1631 28.128 72.3738 27.872 71.8085 27.36C71.2431 26.8373 70.9605 26.064 70.9605 25.04V17.488H73.4565V25.008C73.4565 25.3707 73.5525 25.6533 73.7445 25.856C73.9365 26.048 74.1978 26.144 74.5285 26.144C74.9231 26.144 75.2591 26.0373 75.5365 25.824L76.2085 27.584C75.9525 27.7653 75.6431 27.904 75.2805 28C74.9285 28.0853 74.5605 28.128 74.1765 28.128ZM69.6325 21.504V19.584H75.6005V21.504H69.6325ZM76.9696 28V19.392H79.4656V28H76.9696ZM78.2176 18.192C77.7589 18.192 77.3856 18.0587 77.0976 17.792C76.8096 17.5253 76.6656 17.1947 76.6656 16.8C76.6656 16.4053 76.8096 16.0747 77.0976 15.808C77.3856 15.5413 77.7589 15.408 78.2176 15.408C78.6763 15.408 79.0496 15.536 79.3376 15.792C79.6256 16.0373 79.7696 16.3573 79.7696 16.752C79.7696 17.168 79.6256 17.5147 79.3376 17.792C79.0603 18.0587 78.6869 18.192 78.2176 18.192ZM85.3021 28.128C84.3741 28.128 83.5474 27.9413 82.8221 27.568C82.0968 27.184 81.5261 26.656 81.1101 25.984C80.7048 25.312 80.5021 24.5493 80.5021 23.696C80.5021 22.832 80.7048 22.0693 81.1101 21.408C81.5261 20.736 82.0968 20.2133 82.8221 19.84C83.5474 19.456 84.3741 19.264 85.3021 19.264C86.2088 19.264 86.9981 19.456 87.6701 19.84C88.3421 20.2133 88.8381 20.752 89.1581 21.456L87.2221 22.496C86.9981 22.0907 86.7154 21.792 86.3741 21.6C86.0434 21.408 85.6808 21.312 85.2861 21.312C84.8594 21.312 84.4754 21.408 84.1341 21.6C83.7928 21.792 83.5208 22.064 83.3181 22.416C83.1261 22.768 83.0301 23.1947 83.0301 23.696C83.0301 24.1973 83.1261 24.624 83.3181 24.976C83.5208 25.328 83.7928 25.6 84.1341 25.792C84.4754 25.984 84.8594 26.08 85.2861 26.08C85.6808 26.08 86.0434 25.9893 86.3741 25.808C86.7154 25.616 86.9981 25.312 87.2221 24.896L89.1581 25.952C88.8381 26.6453 88.3421 27.184 87.6701 27.568C86.9981 27.9413 86.2088 28.128 85.3021 28.128ZM92.8512 28.128C92.1152 28.128 91.4059 28.0427 90.7232 27.872C90.0512 27.6907 89.5179 27.4667 89.1232 27.2L89.9552 25.408C90.3499 25.6533 90.8139 25.856 91.3472 26.016C91.8912 26.1653 92.4246 26.24 92.9472 26.24C93.5232 26.24 93.9286 26.1707 94.1632 26.032C94.4086 25.8933 94.5312 25.7013 94.5312 25.456C94.5312 25.2533 94.4352 25.104 94.2432 25.008C94.0619 24.9013 93.8166 24.8213 93.5072 24.768C93.1979 24.7147 92.8566 24.6613 92.4832 24.608C92.1206 24.5547 91.7526 24.4853 91.3792 24.4C91.0059 24.304 90.6646 24.1653 90.3552 23.984C90.0459 23.8027 89.7952 23.5573 89.6032 23.248C89.4219 22.9387 89.3312 22.5387 89.3312 22.048C89.3312 21.504 89.4859 21.024 89.7952 20.608C90.1152 20.192 90.5739 19.8667 91.1712 19.632C91.7686 19.3867 92.4832 19.264 93.3152 19.264C93.9019 19.264 94.4992 19.328 95.1072 19.456C95.7152 19.584 96.2219 19.7707 96.6272 20.016L95.7952 21.792C95.3792 21.5467 94.9579 21.3813 94.5312 21.296C94.1152 21.2 93.7099 21.152 93.3152 21.152C92.7606 21.152 92.3552 21.2267 92.0992 21.376C91.8432 21.5253 91.7152 21.7173 91.7152 21.952C91.7152 22.1653 91.8059 22.3253 91.9872 22.432C92.1792 22.5387 92.4299 22.624 92.7392 22.688C93.0486 22.752 93.3846 22.8107 93.7472 22.864C94.1206 22.9067 94.4939 22.976 94.8672 23.072C95.2406 23.168 95.5766 23.3067 95.8752 23.488C96.1846 23.6587 96.4352 23.8987 96.6272 24.208C96.8192 24.5067 96.9152 24.9013 96.9152 25.392C96.9152 25.9253 96.7552 26.4 96.4352 26.816C96.1152 27.2213 95.6512 27.5413 95.0432 27.776C94.4459 28.0107 93.7152 28.128 92.8512 28.128ZM106.602 19.984L108.97 23.584L106.602 27.216H104.442L106.618 23.584L104.442 19.984H106.602ZM107.082 22.72V24.464H101.354V22.72H107.082Z" fill="#2B788B"/>
</g>
<defs>
<filter id="filter0_d_0_105" x="0.0476074" y="0" width="137" height="52" filterUnits="userSpaceOnUse" color-interpolation-filters="sRGB">
<feFlood flood-opacity="0" result="BackgroundImageFix"/>
<feColorMatrix in="SourceAlpha" type="matrix" values="0 0 0 0 0 0 0 0 0 0 0 0 0 0 0 0 0 0 127 0" result="hardAlpha"/>
<feOffset dy="4"/>
<feGaussianBlur stdDeviation="2"/>
<feComposite in2="hardAlpha" operator="out"/>
<feColorMatrix type="matrix" values="0 0 0 0 0 0 0 0 0 0 0 0 0 0 0 0 0 0 0.25 0"/>
<feBlend mode="normal" in2="BackgroundImageFix" result="effect1_dropShadow_0_105"/>
<feBlend mode="normal" in="SourceGraphic" in2="effect1_dropShadow_0_105" result="shape"/>
</filter>
</defs>
</svg>
